HIERARCHY
ROOT Hips
{
	OFFSET -3.958830 18.904000 13.208200
	CHANNELS 6 Xposition Yposition Zposition Zrotation Yrotation Xrotation 
	JOINT LHipJoint
	{
		OFFSET 0.000000 0.000000 0.000000
		CHANNELS 3 Zrotation Yrotation Xrotation
		JOINT LeftUpLeg
		{
			OFFSET 1.800000 -1.400000 0.085000
			CHANNELS 3 Zrotation Yrotation Xrotation
			JOINT LeftLeg
			{
				OFFSET 2.215000 -6.000000 0.000000
				CHANNELS 3 Zrotation Yrotation Xrotation
				JOINT LeftFoot
				{
					OFFSET 2.500000 -6.900000 0.000000
					CHANNELS 3 Zrotation Yrotation Xrotation
					JOINT LeftToeBase
					{
						OFFSET 0.200000 -0.500000 1.950000
						CHANNELS 3 Zrotation Yrotation Xrotation
						End Site
						{
							OFFSET 0.000000 0.000000 0.000000
						}
					}
				}
			}
		}
	}
	JOINT RHipJoint
	{
		OFFSET 0.000000 0.000000 0.000000
		CHANNELS 3 Zrotation Yrotation Xrotation
		JOINT RightUpLeg
		{
			OFFSET -1.800000 -1.400000 0.085000
			CHANNELS 3 Zrotation Yrotation Xrotation
			JOINT RightLeg
			{
				OFFSET -2.215000 -6.000000 0.000000
				CHANNELS 3 Zrotation Yrotation Xrotation
				JOINT RightFoot
				{
					OFFSET -2.500000 -6.900000 0.000000
					CHANNELS 3 Zrotation Yrotation Xrotation
					JOINT RightToeBase
					{
						OFFSET -0.200000 -0.500000 1.950000
						CHANNELS 3 Zrotation Yrotation Xrotation
						End Site
						{
							OFFSET 0.000000 0.000000 0.000000
						}
					}
				}
			}
		}
	}
	JOINT LowerBack
	{
		OFFSET 0.000000 0.000000 0.000000
		CHANNELS 3 Zrotation Yrotation Xrotation
		JOINT Spine
		{
			OFFSET -0.087000 1.940000 -0.288900
			CHANNELS 3 Zrotation Yrotation Xrotation
			JOINT Spine1
			{
				OFFSET 0.000000 1.950000 0.060000
				CHANNELS 3 Zrotation Yrotation Xrotation
				JOINT Neck
				{
					OFFSET 0.000000 0.000000 0.000000
					CHANNELS 3 Zrotation Yrotation Xrotation
					JOINT Neck1
					{
						OFFSET 0.000000 1.600000 0.340000
						CHANNELS 3 Zrotation Yrotation Xrotation
						JOINT Head
						{
							OFFSET 0.000000 1.667000 -0.240000
							CHANNELS 3 Zrotation Yrotation Xrotation
							End Site
							{
								OFFSET 0.000000 0.000000 0.000000
							}
						}
					}
				}
				JOINT LeftShoulder
				{
					OFFSET 0.000000 0.000000 0.000000
					CHANNELS 3 Zrotation Yrotation Xrotation
					JOINT LeftArm
					{
						OFFSET 2.700000 1.550000 -0.730000
						CHANNELS 3 Zrotation Yrotation Xrotation
						JOINT LeftForeArm
						{
							OFFSET 5.450000 0.000000 0.000000
							CHANNELS 3 Zrotation Yrotation Xrotation
							JOINT LeftHand
							{
								OFFSET 3.450000 0.000000 0.000000
								CHANNELS 3 Zrotation Yrotation Xrotation
								JOINT LeftHandIndex1
								{
									OFFSET 0.750000 0.000000 0.000000
									CHANNELS 3 Zrotation Yrotation Xrotation
									End Site
									{
										OFFSET 0.000000 0.000000 0.000000
									}
								}
							}
						}
					}
				}
				JOINT RightShoulder
				{
					OFFSET 0.000000 0.000000 0.000000
					CHANNELS 3 Zrotation Yrotation Xrotation
					JOINT RightArm
					{
						OFFSET -2.700000 1.550000 -0.730000
						CHANNELS 3 Zrotation Yrotation Xrotation
						JOINT RightForeArm
						{
							OFFSET -5.450000 0.000000 0.000000
							CHANNELS 3 Zrotation Yrotation Xrotation
							JOINT RightHand
							{
								OFFSET -3.450000 0.000000 0.000000
								CHANNELS 3 Zrotation Yrotation Xrotation
								JOINT RightHandIndex1
								{
									OFFSET -0.750000 0.000000 0.000000
									CHANNELS 3 Zrotation Yrotation Xrotation
									End Site
									{
										OFFSET 0.000000 0.000000 0.000000
									}
								}
							}
						}
					}
				}
			}
		}
	}
}
MOTION
Frames: 7
Frame Time: 0.016667
3.683720 16.277390 -3.857100 7.629325 -18.622482 7.299560 -15.002935 12.179974 3.955156 5.233759 -5.294891 -32.980389 -8.216695 4.646608 11.262879 -0.680104 3.130334 3.466286 0.411220 0.314030 0.192010 18.474513 -11.112301 2.216504 -9.526136 0.739716 -12.882511 3.353592 -4.034869 11.815248 0.002295 -3.393629 3.218637 0.431320 0.308000 0.149120 -4.025558 -0.409003 -7.072729 9.545250 4.130302 8.919829 -3.697800 5.250375 7.473988 -0.235521 -4.377943 -5.994769 -6.948778 -2.026216 21.391614 -2.996000 -2.492710 -8.904880 -15.685447 0.129661 -1.409210 -22.050554 -8.581212 -1.891847 9.986367 -83.213210 -9.246230 -3.789293 3.425985 0.025540 0.293410 -0.196270 0.198220 15.358306 3.719813 5.401166 33.595306 -3.183411 -4.154280 60.968733 43.984661 19.101306 2.054251 -2.126489 -0.168240 0.247620 -0.034700 -0.089310 
3.792190 16.191620 -3.843380 7.467213 -16.016538 7.139574 -14.961957 12.097445 3.860784 4.295025 -5.323383 -32.802160 -6.676438 4.264048 11.164965 -0.709474 2.911573 3.554397 0.417930 0.327390 0.192500 18.519875 -11.239720 2.243489 -9.824356 0.510170 -11.226159 3.317961 -4.086178 11.077121 -0.031395 -3.562825 3.170258 0.441770 0.314900 0.158010 -4.155648 -0.032221 -7.029307 10.138195 4.511506 8.047607 -4.903088 5.564899 7.721725 0.408584 -3.069158 -6.023929 -4.713489 -2.955561 21.801182 -2.875200 -2.783430 -8.473140 -15.738590 -0.974504 -1.523340 -20.773382 -10.814115 -0.747839 4.136529 -84.276418 -4.163653 -3.822571 3.494985 0.004660 0.309350 -0.202360 0.202160 14.162878 3.751587 5.517554 34.270681 -1.483344 -2.874552 63.757924 45.985809 21.661673 2.060224 -2.164361 -0.160020 0.239360 -0.040000 -0.083910 
3.900320 16.131590 -3.820420 7.219979 -13.568906 6.853404 -14.932082 12.176994 3.713260 3.643425 -5.158397 -31.667061 -5.436679 4.237591 12.558589 -0.739421 2.923949 3.553537 0.419670 0.326910 0.203780 18.535747 -11.409242 2.209977 -9.961570 0.386878 -10.984272 2.555207 -4.136585 12.193793 -0.031498 -3.648478 3.129490 0.454980 0.321840 0.173260 -4.211558 0.184404 -6.910003 10.376288 4.514286 7.345796 -5.476342 5.449882 7.980984 0.866583 -2.116841 -5.883540 -3.006197 -3.933659 21.591246 -3.529640 -3.033730 -8.274190 -15.908544 -0.816953 -1.600075 -21.139731 -12.312690 0.794614 -13.213520 -85.106670 10.858455 -3.907179 3.619597 -0.010170 0.333920 -0.212380 0.192860 13.480501 2.810497 5.326518 36.187772 -0.492843 -2.210528 65.710480 50.090928 25.099525 2.054689 -2.189569 -0.162840 0.234740 -0.032220 -0.092070 
4.027740 16.114170 -3.837480 6.841550 -12.200649 6.065389 -14.882485 12.380957 3.613230 3.726848 -4.958974 -30.396670 -4.967046 4.886807 16.709895 -0.671789 3.310930 3.403246 0.417550 0.329060 0.210470 18.534646 -11.640459 2.116886 -10.614146 0.520318 -13.520671 1.885009 -4.504907 16.690795 -0.004111 -3.701210 3.077657 0.447060 0.311190 0.179590 -4.259873 0.307328 -6.831711 10.937090 4.109150 7.988107 -6.028514 5.088706 8.008615 1.163477 -1.794780 -5.773875 -2.506426 -4.118695 21.916617 -3.926300 -2.868400 -8.006620 -16.942204 -0.495248 -1.465195 -22.432327 -12.838989 1.987229 -36.424168 -84.374854 30.598008 -3.987203 3.666405 -0.021020 0.336040 -0.204520 0.190490 13.900913 2.208096 4.991437 37.792222 0.579902 -2.070731 66.686537 55.601569 28.973305 2.098303 -2.176933 -0.149430 0.218910 -0.041580 -0.089600 
4.157290 16.137810 -3.861670 5.900408 -10.636475 4.743690 -14.824798 12.596867 3.504600 4.006240 -4.781056 -29.105507 -3.612900 5.589289 22.393702 -0.571644 3.924421 3.149980 0.405700 0.304410 0.236500 18.541911 -11.818110 2.113022 -11.359312 0.934600 -17.172957 2.159367 -5.634556 24.170148 -0.055589 -4.136297 2.864147 0.408020 0.258600 0.179500 -4.341853 0.368030 -6.877549 12.202137 3.025316 9.803479 -6.552829 4.200898 7.928399 1.654993 -1.452208 -5.876008 -2.186935 -3.492247 23.280234 -4.109320 -2.033630 -8.538560 -18.069327 -0.820293 -0.794876 -25.078098 -11.152174 1.480893 -51.138181 -79.257208 39.521435 -4.007071 3.610943 0.025030 0.295740 -0.163390 0.164910 14.066519 2.265142 4.386996 38.879956 3.123901 -2.078333 65.372362 59.325927 30.680177 2.155303 -2.100990 -0.140190 0.195240 -0.043590 -0.110780 
4.281840 16.149550 -3.881660 4.919567 -8.661342 3.378394 -14.819426 12.738199 3.356929 4.300293 -4.765552 -27.610695 -2.083553 6.314995 28.645091 -0.413642 4.782439 2.816001 0.390950 0.280640 0.258430 18.545810 -11.653748 2.330384 -13.269231 1.774998 -21.529029 4.778683 -8.225468 33.035627 -0.241364 -5.292248 2.401488 0.365940 0.201540 0.163220 -4.377454 0.062434 -7.080090 13.378609 1.111619 12.243221 -6.760820 2.507838 7.366282 1.883833 -1.785210 -5.845539 -3.032142 -1.971137 24.677746 -4.227780 -0.813800 -9.234230 -20.331941 -1.552368 -0.422188 -27.549284 -8.383051 -1.043430 -45.403564 -69.857027 29.477401 -3.906099 3.597442 0.075790 0.244420 -0.121980 0.139950 15.883578 2.986406 3.946295 39.326533 5.010640 -2.507648 65.907762 63.483377 33.474323 2.250925 -1.986422 -0.134590 0.179580 -0.047860 -0.131550 
4.396280 16.141320 -3.911380 3.574820 -6.855542 2.127578 -14.834281 12.808430 3.111481 5.100848 -4.539203 -25.717052 -0.382477 6.738823 33.637731 -0.248125 5.520623 2.519598 0.407530 0.290730 0.305590 18.558661 -11.289797 2.772633 -15.427049 2.738919 -25.344267 8.742898 -11.524089 39.509071 -0.535610 -6.600669 1.912974 0.327040 0.100880 0.152320 -4.403064 -0.311095 -7.365855 14.548705 -0.936089 14.713783 -6.913467 0.716129 6.814739 2.316058 -1.760568 -6.113939 -3.293986 -0.696809 26.555151 -4.213130 0.318260 -10.930810 -21.991720 -2.426757 0.275018 -30.654025 -4.959038 -3.729853 -37.628836 -58.935826 19.036346 -3.772020 3.505529 0.156500 0.157260 -0.040340 0.119010 16.785347 3.665044 3.726638 40.816337 6.358811 -3.109100 69.019085 66.850095 37.143283 2.387506 -1.834064 -0.108070 0.150610 -0.074550 -0.155550 
